<?xml version="1.0" standalone="no"?>
<!DOCTYPE svg PUBLIC "-//W3C//DTD SVG 20010904//EN"
 "http://www.w3.org/TR/2001/REC-SVG-20010904/DTD/svg10.dtd">
<svg version="1.0" xmlns="http://www.w3.org/2000/svg"
 width="1620.000000pt" height="1620.000000pt" viewBox="0 0 1620.000000 1620.000000"
 preserveAspectRatio="xMidYMid meet">
<metadata>
Created by potrace 1.11, written by Peter Selinger 2001-2013
</metadata>
<g transform="translate(0.000000,1620.000000) scale(0.100000,-0.100000)"
fill="#000000" stroke="none">
<path d="M12605 16190 c-74 -11 -123 -19 -190 -31 -92 -17 -96 -18 -201 -40
-55 -11 -110 -23 -125 -25 -20 -4 -312 -72 -379 -88 -216 -54 -665 -183 -740
-213 -8 -3 -19 -7 -25 -9 -166 -47 -701 -256 -990 -386 -120 -54 -586 -284
-705 -349 -95 -51 -245 -132 -330 -177 -36 -19 -90 -49 -120 -66 -30 -17 -74
-40 -97 -51 -24 -11 -43 -23 -43 -27 0 -5 -5 -8 -10 -8 -10 0 -574 -315 -680
-380 -8 -5 -123 -74 -255 -153 -223 -133 -420 -255 -540 -332 -58 -38 -295
-191 -375 -243 -30 -20 -57 -39 -60 -43 -3 -3 -14 -11 -26 -17 -11 -6 -99 -65
-195 -131 -218 -151 -202 -140 -259 -181 -27 -19 -83 -60 -126 -90 -106 -76
-482 -357 -520 -389 -17 -14 -44 -35 -59 -46 -32 -22 -397 -315 -405 -324 -3
-4 -59 -51 -125 -106 -66 -54 -122 -102 -125 -105 -3 -3 -72 -64 -155 -135
-82 -71 -155 -134 -161 -140 -6 -5 -47 -41 -90 -80 -43 -38 -108 -97 -144
-129 -36 -33 -90 -82 -120 -109 -307 -278 -667 -637 -941 -941 -30 -33 -61
-67 -69 -76 -8 -9 -40 -45 -70 -80 -30 -35 -62 -72 -70 -80 -28 -31 -106 -122
-160 -190 -19 -24 -40 -48 -45 -54 -42 -44 -378 -475 -460 -590 -11 -16 -29
-40 -41 -55 -11 -14 -40 -55 -65 -91 -24 -36 -46 -67 -49 -70 -27 -26 -352
-521 -479 -730 -61 -102 -116 -192 -121 -200 -143 -236 -388 -720 -508 -1005
-229 -545 -355 -981 -456 -1580 -3 -16 -12 -84 -21 -150 -34 -271 -39 -367
-39 -760 0 -198 3 -396 7 -440 4 -44 10 -107 12 -140 13 -142 26 -239 72 -520
4 -24 28 -139 68 -330 3 -11 16 -65 31 -120 14 -55 27 -109 30 -120 2 -11 15
-58 29 -105 14 -47 27 -92 29 -100 17 -69 135 -407 166 -475 5 -11 27 -65 50
-120 117 -283 256 -546 425 -800 394 -592 949 -1053 1595 -1324 69 -29 139
-59 155 -66 69 -30 385 -128 455 -141 14 -3 39 -9 55 -14 28 -8 161 -36 223
-46 15 -2 38 -7 52 -9 14 -3 43 -7 65 -11 22 -3 51 -7 65 -9 14 -2 48 -7 75
-10 28 -3 64 -8 80 -10 212 -27 892 -28 1130 0 17 2 66 6 110 10 44 3 94 8
110 10 17 2 55 6 85 10 61 7 262 35 368 51 34 5 265 47 322 59 14 2 39 7 55
11 44 8 188 42 280 65 44 11 87 22 95 24 17 3 178 49 255 71 28 8 55 16 60 18
36 9 387 129 435 149 14 5 30 11 35 13 20 4 326 134 427 181 307 141 833 418
1068 562 8 5 69 42 135 82 134 80 662 428 770 508 309 227 475 352 595 448
118 94 386 314 433 356 34 30 78 67 97 83 19 16 42 36 50 44 17 16 153 138
190 170 155 134 766 738 987 975 67 72 141 151 165 177 23 25 77 83 118 129
41 45 80 87 85 93 10 11 250 291 284 331 363 438 753 997 1031 1480 149 257
218 386 343 635 292 582 518 1137 729 1790 71 222 181 621 201 730 3 14 14 72
25 130 12 58 23 119 26 135 19 107 36 218 41 264 4 30 8 61 10 70 5 28 16 146
31 331 16 193 10 749 -10 945 -2 17 -7 66 -10 110 -4 44 -9 91 -11 105 -2 14
-6 55 -10 92 -24 251 -126 552 -269 793 -242 408 -572 661 -956 734 -98 19
-268 34 -521 46 -68 4 -155 8 -194 10 -38 3 -131 7 -205 10 -230 10 -281 13
-285 17 -10 10 137 75 575 255 261 107 489 201 505 208 17 8 59 26 95 40 333
137 541 308 613 503 35 96 29 269 -13 377 -29 74 -86 186 -126 247 -81 126
-264 363 -423 548 -220 255 -548 566 -741 702 -150 106 -351 188 -550 225 -45
8 -364 10 -415 3z m30 -4354 c144 -19 245 -47 343 -94 209 -100 358 -274 441
-515 32 -92 34 -101 51 -207 6 -36 13 -76 16 -90 7 -36 6 -274 -1 -345 -5 -53
-28 -201 -40 -262 -3 -13 -7 -35 -10 -50 -9 -45 -74 -301 -100 -393 -142 -503
-404 -1098 -714 -1620 -47 -80 -91 -154 -97 -165 -64 -116 -451 -708 -607
-930 -73 -103 -216 -302 -230 -320 -4 -5 -60 -80 -124 -165 -65 -85 -155 -202
-201 -260 -46 -58 -88 -112 -95 -120 -21 -27 -311 -375 -322 -386 -5 -6 -23
-27 -40 -45 -69 -79 -193 -217 -231 -259 -23 -25 -57 -61 -74 -80 -190 -209
-1024 -1052 -1246 -1260 -155 -145 -326 -304 -394 -365 -36 -32 -81 -72 -100
-90 -124 -111 -339 -294 -424 -360 -22 -16 -62 -48 -90 -71 -28 -22 -67 -51
-86 -64 -19 -13 -37 -27 -40 -30 -12 -15 -259 -187 -405 -282 -702 -459 -1456
-806 -2332 -1074 -183 -56 -458 -126 -548 -141 -16 -2 -46 -8 -65 -13 -19 -5
-57 -12 -85 -15 -27 -3 -97 -12 -155 -19 -72 -9 -191 -13 -375 -11 -346 4
-408 19 -591 140 -114 76 -334 295 -334 333 0 6 -4 12 -8 14 -5 1 -28 36 -51
76 -146 252 -206 542 -205 1002 0 170 9 352 18 381 3 8 7 41 10 74 4 33 8 71
10 85 3 14 7 41 10 60 8 47 15 85 26 145 6 28 12 59 14 71 2 11 16 70 31 130
14 60 28 116 30 124 56 233 241 758 354 1003 17 37 31 70 31 72 0 3 43 92 95
198 103 210 225 431 330 602 37 61 77 126 89 145 11 19 24 40 29 45 4 6 27 39
50 75 109 167 251 361 427 585 30 39 57 72 60 75 3 3 41 50 85 105 44 54 96
118 115 141 19 22 53 63 76 90 48 57 455 540 558 661 62 74 79 87 82 65 3 -30
19 -119 31 -177 8 -38 17 -81 19 -95 17 -93 77 -220 131 -275 54 -56 88 -70
173 -70 65 0 85 5 150 36 124 59 236 146 318 246 84 103 263 331 307 393 293
410 375 516 556 716 105 116 404 414 505 504 22 19 77 69 124 110 47 41 87 77
90 81 7 8 293 245 385 320 147 119 490 376 553 414 10 6 19 12 22 15 3 4 59
42 125 85 66 44 122 82 125 85 3 3 21 15 40 27 19 11 79 48 132 82 471 298
1089 598 1628 791 364 130 856 264 1080 295 25 3 52 8 60 10 8 2 51 7 95 10
43 3 80 7 82 8 5 6 259 -1 308 -7z"/>
</g>
</svg>
